<?xml version="1.0" encoding="UTF-8"?>
<svg id="Layer_1" xmlns="http://www.w3.org/2000/svg" version="1.1" viewBox="0 0 1014.58 244.76">
  <!-- Generator: Adobe Illustrator 30.3.0, SVG Export Plug-In . SVG Version: 2.1.3 Build 182)  -->
  <defs>
    <style>
      .st0 {
        opacity: .2;
      }

      .st0, .st1 {
        fill: #fff;
      }

      .st2 {
        fill: #f50;
      }

      .st3 {
        fill: #231f20;
      }
    </style>
  </defs>
  <path class="st3" d="M284.33,180.91v-86.43h23.52v28.08h2.01c5.47-24.07,12.76-28.99,24.07-28.99h2.55v28.45h-5.11c-17.32,0-22.25,5.11-22.25,20.42v38.47h-24.8Z"/>
  <path class="st3" d="M336.85,139.52c0-29.9,16.23-47.41,44.31-47.41,26.62,0,39.2,15.68,39.2,39.57,0,3.65-.18,7.11-.55,11.67h-58.53c1.46,13.86,7.84,20.06,19.69,20.06s15.32-5.47,17.51-12.03l20.79,5.65c-3.83,14.95-13.86,26.26-38.47,26.26-26.07,0-43.94-14.41-43.94-43.76ZM361.46,130.77h36.1c-.36-13.49-6.02-20.06-17.14-20.06s-17.69,5.84-18.96,20.06Z"/>
  <path class="st3" d="M451.9,128.21h6.75l22.06-33.73h28.26v2.01l-30.82,40.12,32.64,42.3v2.01h-28.26l-24.25-34.64h-6.38v34.64h-24.8V63.85h24.8v64.36Z"/>
  <path class="st3" d="M539.97,180.91h-24.8V63.85h24.8v117.06Z"/>
  <path class="st3" d="M601.6,160.31h-2.19c-4.38,13.68-13.49,22.43-28.26,22.43s-25.34-7.48-25.34-24.43c0-15.5,9.12-26.26,31.91-26.26h22.61v-6.02c0-8.93-3.83-14.04-13.31-14.04-8.21,0-12.95,4.01-14.59,12.4l-23.34-5.29c2.92-15.68,14.95-26.8,38.84-26.8,26.26,0,37.01,12.03,37.01,33.73v54.88h-23.34v-20.6ZM600.32,147.72v-3.46h-17.87c-8.02,0-13.13,3.65-13.13,9.66,0,5.47,3.1,9.85,12.58,9.85,11.3,0,18.42-6.75,18.42-16.05Z"/>
  <path class="st3" d="M656.12,180.91h-24.8v-86.43h24.25v23.16h1.82c4.92-16.77,15.32-25.53,28.99-25.53,15.32,0,22.79,9.66,23.89,25.89h2.01c4.74-16.96,14.59-25.89,28.81-25.89,16.96,0,25.53,11.49,25.53,30.27v58.53h-24.98v-51.6c0-8.75-4.01-14.77-13.13-14.77-10.58,0-17.14,7.48-17.14,18.23v48.14h-24.8v-51.6c0-8.75-4.19-14.77-13.13-14.77-10.58,0-17.32,7.48-17.32,18.23v48.14Z"/>
  <path class="st3" d="M772.09,137.7c0-28.81,17.14-45.59,44.67-45.59s44.31,16.78,44.31,45.59-16.77,45.77-44.31,45.77-44.67-17.32-44.67-45.77ZM796.88,137.51c0,15.68,5.65,24.8,19.69,24.8s19.69-9.12,19.69-24.8-6.02-24.62-19.69-24.62-19.69,8.93-19.69,24.62Z"/>
  <path class="st3" d="M889.69,154.84v26.07h-26.99v-26.07h26.99Z"/>
  <path class="st3" d="M950.23,160.31h-2.19c-4.38,13.68-13.49,22.43-28.26,22.43s-25.34-7.48-25.34-24.43c0-15.5,9.12-26.26,31.91-26.26h22.61v-6.02c0-8.93-3.83-14.04-13.31-14.04-8.21,0-12.95,4.01-14.59,12.4l-23.34-5.29c2.92-15.68,14.95-26.8,38.84-26.8,26.26,0,37.01,12.03,37.01,33.73v54.88h-23.34v-20.6ZM948.95,147.72v-3.46h-17.87c-8.02,0-13.13,3.65-13.13,9.66,0,5.47,3.1,9.85,12.58,9.85,11.3,0,18.42-6.75,18.42-16.05Z"/>
  <path class="st3" d="M980.13,82.26v-17.87h25.89v17.87h-25.89ZM980.68,180.91v-86.43h24.8v86.43h-24.8Z"/>
  <rect class="st2" x="8.56" y="6.9" width="230.96" height="230.96" rx="35.26" ry="35.26"/>
  <path class="st0" d="M239.52,65.39v-1.43h-57.07V6.9h-1.43v57.07h-56.27V6.9h-1.43v57.07h-56.27V6.9h-1.43v57.07H8.56v1.43h57.07v56.27H8.56v1.43h57.07v56.27H8.56v1.43h57.07v57.07h1.43v-57.07h56.27v57.07h1.43v-57.07h56.27v57.07h1.43v-57.07h57.07v-1.43h-57.07v-56.27h57.07v-1.43h-57.07v-56.27h57.07ZM67.05,65.39h56.27v56.27h-56.27v-56.27ZM67.05,179.36v-56.27h56.27v56.27h-56.27ZM181.02,179.36h-56.27v-56.27h56.27v56.27ZM181.02,121.67h-56.27v-56.27h56.27v56.27Z"/>
  <path class="st1" d="M176.68,139.68c6.47-3.42,11.84-7.44,16.11-12.09,4.27-4.52,7.51-9.55,9.71-15.11,2.2-5.55,3.23-11.26,3.11-17.12-.25-4.88-1.25-9.58-3.02-14.1-1.77-4.52-4.24-8.54-7.42-12.09-6.96-7.69-15.81-12.27-26.55-13.73-3.91-.61-7.57-.92-10.99-.92-8.55,0-17.03,1.4-25.45,4.21-6.72,2.44-12.82,5.56-18.31,9.34-5.86,3.91-11.35,8.91-16.48,15.02-4.64,5.62-8.79,12.03-12.45,19.23-7.08-5.49-14.04-12.09-20.88-19.78l-21.61,18.68c9.89,11.35,20.14,20.69,30.76,28.02l-1.28,3.66c-3.42,10.01-6.04,19.75-7.87,29.21-1.83,9.46-2.75,17.73-2.75,24.81h28.57c0-5.37.79-11.99,2.38-19.87,1.58-7.87,3.78-15.96,6.59-24.26,3.54,1.22,7.02,2.32,10.44,3.3,3.85,1,7.7,1.77,11.55,2.31.09,6.5,1.24,12.45,3.46,17.83,2.32,5.62,5.68,10.38,10.07,14.28,6.59,5.86,14.28,9.04,23.07,9.52.61.12,1.59.18,2.93.18,5.61,0,11.35-.98,17.21-2.93,4.64-1.59,8.79-3.42,12.45-5.49,3.66-2.07,6.1-3.6,7.32-4.58l-17.03-23.07c-3.79,2.69-7.75,4.7-11.9,6.04-2.93.98-5.56,1.46-7.87,1.46-2.69,0-5.13-.85-7.32-2.56-2.45-2.33-3.71-5.96-3.82-10.85,1.89-.29,3.78-.64,5.66-1.05,7.81-1.58,15.02-4.09,21.61-7.51ZM109.84,116.43c3.05-6.23,6.23-11.23,9.52-15.02,6.1-7.44,13.49-12.63,22.16-15.56,5.49-1.83,10.86-2.75,16.11-2.75.61,0,2.93.18,6.96.55,3.78.49,6.84,2.01,9.16,4.58,2.07,2.32,3.11,4.94,3.11,7.87.24,4.52-1.89,8.97-6.41,13.37-4.52,4.4-11.6,7.63-21.24,9.71-4.88,1.1-9.83,1.65-14.83,1.65-5.98,0-11.9-.79-17.76-2.38-1.95-.49-4.21-1.16-6.78-2.01Z"/>
</svg>