<?xml version="1.0" encoding="UTF-8"?>
<svg id="Layer_1" xmlns="http://www.w3.org/2000/svg" version="1.1" viewBox="0 0 191.09 191.09">
  <!-- Generator: Adobe Illustrator 30.3.0, SVG Export Plug-In . SVG Version: 2.1.3 Build 182)  -->
  <defs>
    <style>
      .st0 {
        opacity: .2;
      }

      .st0, .st1 {
        fill: #fff;
      }

      .st2 {
        fill: #f50;
      }
    </style>
  </defs>
  <rect class="st2" width="191.09" height="191.09" rx="29.18" ry="29.18"/>
  <path class="st0" d="M191.09,48.4v-1.18h-47.22V0h-1.18v47.22h-46.56V0h-1.18v47.22h-46.56V0h-1.18v47.22H0v1.18h47.22v46.56H0v1.18h47.22v46.56H0v1.18h47.22v47.22h1.18v-47.22h46.56v47.22h1.18v-47.22h46.56v47.22h1.18v-47.22h47.22v-1.18h-47.22v-46.56h47.22v-1.18h-47.22v-46.56h47.22ZM48.4,48.4h46.56v46.56h-46.56v-46.56ZM48.4,142.69v-46.56h46.56v46.56h-46.56ZM142.69,142.69h-46.56v-46.56h46.56v46.56ZM142.69,94.96h-46.56v-46.56h46.56v46.56Z"/>
  <path class="st1" d="M139.1,109.86c5.35-2.83,9.8-6.16,13.33-10,3.53-3.74,6.21-7.9,8.03-12.5,1.82-4.59,2.67-9.32,2.58-14.17-.2-4.04-1.04-7.93-2.5-11.67-1.47-3.74-3.51-7.07-6.14-10-5.76-6.36-13.08-10.15-21.97-11.36-3.23-.5-6.26-.76-9.09-.76-7.07,0-14.09,1.16-21.06,3.48-5.56,2.02-10.61,4.6-15.15,7.73-4.85,3.23-9.39,7.37-13.64,12.42-3.84,4.65-7.27,9.95-10.3,15.91-5.86-4.55-11.62-10-17.27-16.36l-17.88,15.45c8.18,9.39,16.67,17.12,25.45,23.18l-1.06,3.03c-2.83,8.28-5,16.34-6.52,24.17-1.51,7.83-2.27,14.67-2.27,20.53h23.63c0-4.44.66-9.92,1.97-16.44,1.31-6.52,3.13-13.2,5.45-20.07,2.93,1.01,5.81,1.92,8.64,2.73,3.19.83,6.37,1.46,9.56,1.91.08,5.38,1.02,10.3,2.86,14.75,1.92,4.65,4.7,8.59,8.33,11.82,5.45,4.85,11.82,7.48,19.09,7.88.5.1,1.31.15,2.42.15,4.64,0,9.39-.81,14.24-2.42,3.84-1.31,7.27-2.83,10.3-4.55,3.03-1.72,5.05-2.98,6.06-3.79l-14.09-19.09c-3.13,2.22-6.42,3.89-9.85,5-2.42.81-4.6,1.21-6.51,1.21-2.22,0-4.24-.71-6.06-2.12-2.03-1.93-3.07-4.93-3.16-8.98,1.57-.24,3.13-.53,4.68-.87,6.46-1.31,12.42-3.38,17.88-6.21ZM83.8,90.62c2.52-5.15,5.15-9.29,7.88-12.42,5.05-6.16,11.16-10.45,18.33-12.88,4.55-1.52,8.99-2.27,13.33-2.27.5,0,2.42.15,5.76.45,3.13.4,5.66,1.67,7.58,3.79,1.72,1.92,2.58,4.09,2.58,6.52.2,3.74-1.57,7.42-5.3,11.06-3.74,3.64-9.6,6.31-17.57,8.03-4.04.91-8.13,1.36-12.27,1.36-4.95,0-9.85-.66-14.7-1.97-1.62-.4-3.48-.96-5.61-1.67Z"/>
</svg>