<?xml version="1.0" encoding="UTF-8"?>
<svg id="Layer_1" xmlns="http://www.w3.org/2000/svg" version="1.1" viewBox="0 0 512 512">
  <!-- Generator: Adobe Illustrator 30.3.0, SVG Export Plug-In . SVG Version: 2.1.3 Build 182)  -->
  <defs>
    <style>
      .st0 {
        fill: #f50;
      }

      .st1 {
        fill: #fff;
      }
    </style>
  </defs>
  <circle class="st0" cx="256" cy="256" r="255.73"/>
  <path class="st1" d="M356.15,288.92c12.31-6.5,22.53-14.16,30.66-22.99,8.13-8.59,14.28-18.17,18.46-28.74,4.18-10.56,6.15-21.42,5.92-32.57-.47-9.29-2.38-18.23-5.75-26.82-3.37-8.59-8.07-16.25-14.11-22.99-13.24-14.63-30.08-23.34-50.51-26.13-7.44-1.16-14.4-1.74-20.9-1.74-16.26,0-32.4,2.67-48.42,8.01-12.78,4.65-24.39,10.57-34.84,17.77-11.15,7.43-21.6,16.96-31.35,28.57-8.83,10.69-16.72,22.88-23.69,36.58-13.47-10.45-26.71-22.99-39.71-37.62l-41.11,35.53c18.81,21.6,38.32,39.37,58.53,53.3l-2.44,6.97c-6.5,19.05-11.5,37.57-14.98,55.57-3.48,18-5.22,33.74-5.22,47.2h54.35c0-10.22,1.51-22.82,4.53-37.8,3.01-14.98,7.2-30.36,12.54-46.16,6.73,2.32,13.35,4.41,19.86,6.27,7.33,1.91,14.66,3.36,21.98,4.4.18,12.37,2.35,23.69,6.58,33.92,4.41,10.69,10.8,19.74,19.16,27.17,12.54,11.15,27.17,17.19,43.9,18.11,1.16.23,3.02.35,5.57.35,10.68,0,21.6-1.86,32.75-5.57,8.82-3.02,16.72-6.5,23.69-10.45,6.97-3.95,11.61-6.85,13.94-8.71l-32.4-43.9c-7.2,5.11-14.75,8.94-22.64,11.5-5.57,1.86-10.57,2.79-14.98,2.79-5.11,0-9.75-1.62-13.94-4.88-4.66-4.43-7.06-11.34-7.27-20.65,3.6-.56,7.19-1.22,10.76-2,14.86-3.01,28.57-7.78,41.11-14.28ZM228.99,244.68c5.8-11.84,11.84-21.37,18.12-28.57,11.61-14.16,25.66-24.04,42.15-29.61,10.45-3.48,20.67-5.23,30.66-5.23,1.16,0,5.57.35,13.24,1.05,7.2.93,13,3.83,17.42,8.71,3.95,4.41,5.92,9.41,5.92,14.98.46,8.59-3.6,17.07-12.19,25.43-8.59,8.36-22.07,14.52-40.41,18.46-9.29,2.09-18.7,3.14-28.22,3.14-11.38,0-22.64-1.51-33.79-4.53-3.72-.93-8.01-2.2-12.89-3.83Z"/>
</svg>