<?xml version="1.0" encoding="UTF-8"?>
<svg id="Layer_1" xmlns="http://www.w3.org/2000/svg" version="1.1" viewBox="0 0 1920 418.7">
  <!-- Generator: Adobe Illustrator 30.3.0, SVG Export Plug-In . SVG Version: 2.1.3 Build 182)  -->
  <defs>
    <style>
      .st0 {
        fill: #f50;
      }

      .st1 {
        fill: #231f20;
      }
    </style>
  </defs>
  <path class="st1" d="M68.92,350.06v-217.05h59.07v70.52h5.04c13.74-60.44,32.05-72.81,60.44-72.81h6.41v71.43h-12.82c-43.5,0-55.87,12.82-55.87,51.28v96.62h-62.27Z"/>
  <path class="st1" d="M200.8,246.11c0-75.1,40.75-119.06,111.27-119.06,66.86,0,98.45,39.38,98.45,99.37,0,9.16-.46,17.86-1.37,29.31h-146.99c3.66,34.8,19.69,50.37,49.45,50.37s38.46-13.74,43.96-30.22l52.2,14.2c-9.62,37.55-34.8,65.94-96.62,65.94-65.48,0-110.36-36.17-110.36-109.9ZM262.62,224.13h90.67c-.92-33.89-15.11-50.37-43.04-50.37s-44.42,14.65-47.62,50.37Z"/>
  <path class="st1" d="M489.74,217.72h16.94l55.41-84.71h70.98v5.04l-77.39,100.74,81.96,106.24v5.04h-70.98l-60.9-87h-16.03v87h-62.28V56.08h62.28v161.64Z"/>
  <path class="st1" d="M701.74,350.06h-62.27V56.08h62.27v293.98Z"/>
  <path class="st1" d="M856.51,298.31h-5.5c-10.99,34.35-33.88,56.32-70.98,56.32s-63.65-18.77-63.65-61.36c0-38.92,22.89-65.94,80.13-65.94h56.78v-15.11c0-22.44-9.62-35.26-33.43-35.26-20.61,0-32.51,10.07-36.63,31.14l-58.61-13.28c7.33-39.38,37.55-67.31,97.54-67.31,65.94,0,92.95,30.22,92.95,84.71v137.83h-58.61v-51.74ZM853.31,266.72v-8.7h-44.88c-20.15,0-32.97,9.16-32.97,24.27,0,13.74,7.78,24.73,31.6,24.73,28.39,0,46.25-16.94,46.25-40.29Z"/>
  <path class="st1" d="M1002.58,350.06h-62.27v-217.05h60.9v58.16h4.58c12.36-42.13,38.47-64.11,72.81-64.11,38.47,0,57.24,24.27,59.98,65.02h5.04c11.9-42.59,36.63-65.02,72.35-65.02,42.59,0,64.11,28.85,64.11,76.01v146.99h-62.73v-129.59c0-21.98-10.07-37.09-32.97-37.09-26.56,0-43.04,18.77-43.04,45.79v120.89h-62.28v-129.59c0-21.98-10.53-37.09-32.97-37.09-26.56,0-43.5,18.77-43.5,45.79v120.89Z"/>
  <path class="st1" d="M1293.81,241.53c0-72.35,43.04-114.48,112.19-114.48s111.27,42.13,111.27,114.48-42.13,114.94-111.27,114.94-112.19-43.5-112.19-114.94ZM1356.09,241.08c0,39.38,14.2,62.28,49.46,62.28s49.45-22.9,49.45-62.28-15.11-61.82-49.45-61.82-49.46,22.44-49.46,61.82Z"/>
  <path class="st0" d="M1559.4,354.18c-6.72,0-12.44-2.22-17.17-6.64-4.74-4.42-7.1-10.3-7.1-17.63s2.36-12.74,7.1-17.17c4.73-4.42,10.45-6.64,17.17-6.64,6.1,0,11.6,2.22,16.48,6.64,4.88,4.43,7.33,10.16,7.33,17.17s-2.45,13.21-7.33,17.63c-4.89,4.42-10.38,6.64-16.48,6.64Z"/>
  <path class="st0" d="M1644.57,354.18c-12.82,0-23.35-4.05-31.59-12.14-8.24-8.08-12.36-18.85-12.36-32.28s4.12-25.56,12.36-37.32c8.24-11.75,19.53-22.36,33.89-31.83,14.35-9.46,30.68-17.09,49-22.89,3.96-1.22,5.95-3.81,5.95-7.79v-41.67c0-14.65-2.29-25.11-6.87-31.37-4.58-6.25-10.84-9.39-18.77-9.39s-14.58,3.44-20.83,10.3c-6.26,6.87-10.76,18.4-13.51,34.57-1.53,9.77-4.81,16.87-9.84,21.29-5.04,4.43-10.15,6.64-15.34,6.64-8.55,0-12.82-4.27-12.82-12.82s2.52-17.63,7.56-26.33c5.04-8.7,11.68-16.64,19.92-23.81,8.24-7.17,17.24-12.89,27.02-17.17,9.77-4.27,19.53-6.41,29.31-6.41,30.22,0,45.33,17.56,45.33,52.66v140.12c0,12.82,3.2,19.23,9.62,19.23,3.96,0,7.63-2.67,10.99-8.01,3.36-5.34,5.04-14.43,5.04-27.25,0-4.88,1.98-7.33,5.95-7.33,3.66,0,5.5,2.6,5.5,7.78,0,22.29-3.89,38.39-11.68,48.31-7.78,9.92-16.56,14.88-26.33,14.88-7.33,0-13.13-2.98-17.4-8.93-4.28-5.95-7.18-13.05-8.7-21.29-.31-3.05-1.6-4.65-3.89-4.81-2.29-.15-4.51,1.3-6.64,4.35-7.32,10.07-14.81,17.71-22.44,22.89-7.64,5.19-17.1,7.78-28.39,7.78ZM1656.93,333.11c7.93,0,15.26-2.82,21.98-8.47,6.71-5.64,12.21-13.2,16.48-22.67,4.27-9.46,6.41-20.15,6.41-32.05v-33.43c0-5.8-3.21-7.48-9.62-5.04-18.63,6.72-33.05,15.96-43.27,27.71-10.23,11.76-15.34,25.87-15.34,42.36,0,21.06,7.78,31.59,23.35,31.59Z"/>
  <path class="st0" d="M1767.74,350.06c-4.58,0-6.87-1.67-6.87-5.04,0-2.75,1.98-4.58,5.95-5.5l5.5-.92c7.63-1.22,12.51-3.13,14.65-5.72,2.13-2.59,3.21-7.1,3.21-13.51v-153.86c0-5.5-.84-9.23-2.52-11.22-1.68-1.98-4.66-3.28-8.93-3.89l-9.62-1.37c-3.97-.3-5.95-1.98-5.95-5.04,0-2.44,2.44-4.12,7.33-5.04,9.46-1.52,17.09-3.96,22.89-7.33,5.79-3.36,11.45-7.48,16.94-12.36,2.75-2.75,5.04-4.12,6.87-4.12,2.75,0,4.12,1.83,4.12,5.5v198.73c0,6.41.92,10.99,2.75,13.74s5.34,4.43,10.53,5.04l11.45,1.38c3.36.61,5.04,2.29,5.04,5.04,0,3.66-2.29,5.5-6.87,5.5h-76.47ZM1806.21,73.02c-6.41,0-11.84-2.29-16.26-6.87-4.43-4.58-6.64-10.37-6.64-17.4s2.21-12.74,6.64-17.17c4.42-4.42,9.84-6.64,16.26-6.64s11.75,2.22,16.03,6.64c4.27,4.43,6.41,10.15,6.41,17.17s-2.14,12.82-6.41,17.4c-4.28,4.58-9.62,6.87-16.03,6.87Z"/>
</svg>